<?xml version="1.0" encoding="utf-8"?>
<!-- Generator: Adobe Illustrator 13.0.0, SVG Export Plug-In . SVG Version: 6.00 Build 14948)  -->
<!DOCTYPE svg PUBLIC "-//W3C//DTD SVG 1.1 Basic//EN" "http://www.w3.org/Graphics/SVG/1.1/DTD/svg11-basic.dtd">
<svg version="1.1" baseProfile="basic"
	 id="svg2" xmlns:inkscape="http://www.inkscape.org/namespaces/inkscape" xmlns:sodipodi="http://sodipodi.sourceforge.net/DTD/sodipodi-0.dtd" xmlns:dc="http://purl.org/dc/elements/1.1/" xmlns:cc="http://creativecommons.org/ns#" xmlns:svg="http://www.w3.org/2000/svg" xmlns:rdf="http://www.w3.org/1999/02/22-rdf-syntax-ns#" inkscape:version="0.48.2 r9819" sodipodi:docname="body_dark.svg"
	 xmlns="http://www.w3.org/2000/svg" xmlns:xlink="http://www.w3.org/1999/xlink" x="0px" y="0px" width="512px" height="512px"
	 viewBox="0 0 512 512" xml:space="preserve">
<sodipodi:namedview  id="base" bordercolor="#666666" inkscape:cy="207.02655" borderopacity="1.0" pagecolor="#ffffff" showgrid="false" inkscape:cx="320.43012" inkscape:zoom="1.097361" inkscape:document-units="px" inkscape:current-layer="layer4" inkscape:window-width="1304" inkscape:window-height="746" inkscape:window-x="54" inkscape:window-y="-8" inkscape:pageopacity="0.0" inkscape:pageshadow="2" inkscape:window-maximized="1">
	</sodipodi:namedview>
<g id="layer4" inkscape:label="Tshirt" inkscape:groupmode="layer">
	<path id="path3973" sodipodi:nodetypes="csscssscsssccc" inkscape:connector-curvature="0" fill="#266EBC" d="M76.5,487.5
		c0,0-5-28,13.5-59s63.391-50.771,87.03-58.061c23.47-7.238,36.53-13.172,36.53-13.172s-3.277,9.646-6.939,27.556
		C202.589,404.546,215.5,417,232.5,417.5s48.744-6.983,73.854-22.5c24.494-15.138,37.432-42.771,37.237-43.207
		c0,0,11.208,10.894,24.247,16.01c23.03,9.036,45.359,18.337,62.161,31.697c16.9,13.438,45.613,58.53,49.401,76.917
		c0.195,0.947-53.109,22.958-81.401,37.083L113,513L76.5,487.5z"/>
</g>
</svg>
