<?xml version="1.0" encoding="utf-8"?>
<!-- Generator: Adobe Illustrator 13.0.0, SVG Export Plug-In . SVG Version: 6.00 Build 14948)  -->
<!DOCTYPE svg PUBLIC "-//W3C//DTD SVG 1.1 Basic//EN" "http://www.w3.org/Graphics/SVG/1.1/DTD/svg11-basic.dtd">
<svg version="1.1" baseProfile="basic"
	 id="svg2" xmlns:dc="http://purl.org/dc/elements/1.1/" xmlns:cc="http://creativecommons.org/ns#" xmlns:svg="http://www.w3.org/2000/svg" xmlns:rdf="http://www.w3.org/1999/02/22-rdf-syntax-ns#"
	 xmlns="http://www.w3.org/2000/svg" xmlns:xlink="http://www.w3.org/1999/xlink" x="0px" y="0px" width="512px" height="512px"
	 viewBox="0 0 512 512" xml:space="preserve">
<path id="path3941" fill="#593B2A" d="M80.434,513.701h401.96c0,0,1.483-44.497-28.182-80.837
	c-29.665-36.339-58.04-50.063-80.838-62.296c-15.202-8.157-20.707-9.093-29.851-14.833c-9.725-6.104-8.712-32.308-10.383-45.053
	c-0.68-15.621-1.359-25.469-2.039-38.194l-114.581,26.885c0.946,10.058,2.535,21.443,2.596,29.665
	c-0.862,7.763-1.485,31.057-12.607,35.598c-11.004,4.493-40.443,16.058-56.733,22.249c-19.165,7.876-38.156,18.457-49.317,33.373
	c-11.35,15.167-15.957,28.963-17.799,44.126C80.456,482.519,80.434,513.701,80.434,513.701L80.434,513.701z"/>
<g id="g3945" transform="translate(-118.3199,249.629)">
	
		<radialGradient id="path3947_1_" cx="706.3148" cy="693.2267" r="25.0135" gradientTransform="matrix(0.9591 0.0136 -0.0218 1.5334 -284.0486 -1134.8173)" gradientUnits="userSpaceOnUse">
		<stop  offset="0" style="stop-color:#FFFFFF"/>
		<stop  offset="1" style="stop-color:#F0F0F0"/>
	</radialGradient>
	<path id="path3947" fill="url(#path3947_1_)" d="M368.677-24.147c10.586,1.896,20.422-5.815,24.773-14.983
		c7.773-13.895,13.139-30.986,7.438-46.608c-2.434-6.667-7.192-13.764-14.845-14.629c-8.021-1.44-14.824,4.341-19.893,9.803
		c-9.817,10.753-12.754,25.879-12.921,40.007c0.247,9.755,3.982,20.645,12.938,25.629C366.967-24.564,367.81-24.291,368.677-24.147
		L368.677-24.147z"/>
	
		<radialGradient id="path3949_1_" cx="615.8685" cy="627.8644" r="17.0288" gradientTransform="matrix(1 0 0 2.0541 -319.5996 -1363.3563)" gradientUnits="userSpaceOnUse">
		<stop  offset="0" style="stop-color:#FFFFFF"/>
		<stop  offset="1" style="stop-color:#F0F0F0"/>
	</radialGradient>
	<path id="path3949" fill="url(#path3949_1_)" d="M291.224-38.778c0,0,6.54,1.55,12.393-7.745
		c5.853-9.294,10.154-21.687,9.64-40.274c-0.518-18.589-9.467-23.58-15.663-21.344c-6.196,2.237-13.425,13.599-16.353,25.646
		c-2.926,12.049-2.064,24.957-1.031,30.121C281.241-47.212,285.544-40.155,291.224-38.778L291.224-38.778z"/>
</g>
<g id="g3951" transform="translate(-118.3199,249.629)">
	<path id="path3953" d="M295.183-49.794c5.729,0.943,11.477-10.047,12.22-19.965c1.429-19.013-2.068-27.957-7.057-28.229
		c-5.682-0.309-10.499,11.359-11.704,22.203S287.61-50.654,295.183-49.794L295.183-49.794z"/>
	<path id="path3955" d="M368.16-37.056c7.918,1.378,12.908-9.639,14.975-22.72s-1.895-25.99-7.573-27.367
		s-12.909,12.222-14.286,23.236S360.243-38.605,368.16-37.056L368.16-37.056z"/>
</g>
<g id="g3957" transform="translate(-118.3199,249.629)">
	<path id="path3959" fill="#5E3B26" d="M328.057-61.842c0,0-3.931,13.925-6.063,20.6c-1.037,3.246-14.593,20.881-13.56,23.807
		c1.032,2.928,22.72,4.819,22.72,4.819s3.786-21.515,3.099-28.571C333.565-48.243,328.057-61.842,328.057-61.842L328.057-61.842z"/>
	<path id="path3961" fill="#5E3B26" d="M439.226-70.729c0,0,11.682,5.191,9.826,17.243c-1.854,12.051-2.225,8.528-3.894,13.163
		c-1.668,4.636,0.741,6.119-2.781,10.383c-3.522,4.266-9.271,7.046-9.271,7.046s9.826,10.013,15.944,1.299
		c6.118-8.715,2.226-6.86,5.006-11.866c2.781-5.006,5.748-0.187,9.085-13.721c3.338-13.534,3.522-15.573-2.41-25.216
		C454.8-82.039,439.226-70.729,439.226-70.729L439.226-70.729z"/>
</g>
<path id="path3963" fill="#FFFFFF" fill-opacity="0.9647" d="M265.841,260.849c0,0-61.926,13.351-73.421,12.236
	c-11.495-1.112-35.969-22.248-35.969-22.248s17.799,28.923,33.744,31.519C206.139,284.951,265.841,260.849,265.841,260.849z"/>
<path id="Face-8" fill="#593B2A" d="M203.334,323.991c0,0,76.873,22.928,136.889-33.042s51.355-132.38,47.878-159.814
	c-4.117-32.467-31.021-76.873-88.337-80.245c-57.318-3.372-98.452,2.697-122.729,32.367c-24.275,29.671-7.305,52.202-17.532,89.012
	c-4.86,17.494-19.556,50.574-18.207,74.851C142.644,271.395,151.41,307.808,203.334,323.991L203.334,323.991z"/>
<radialGradient id="path3786-5_1_" cx="469.6833" cy="693.218" r="25.0139" gradientTransform="matrix(0.9591 0.0136 -0.0218 1.5334 -175.4152 -881.9569)" gradientUnits="userSpaceOnUse">
	<stop  offset="0" style="stop-color:#FFFFFF"/>
	<stop  offset="1" style="stop-color:#F0F0F0"/>
</radialGradient>
<path id="path3786-5" fill="url(#path3786-5_1_)" d="M250.357,225.482c10.586,1.896,20.422-5.815,24.773-14.983
	c7.773-13.895,13.139-30.986,7.438-46.608c-2.435-6.667-7.192-13.764-14.845-14.629c-8.021-1.44-14.824,4.341-19.893,9.803
	c-9.817,10.753-12.754,25.879-12.921,40.007c0.247,9.755,3.982,20.645,12.938,25.629
	C248.647,225.065,249.49,225.338,250.357,225.482L250.357,225.482z"/>
<radialGradient id="path3809-4_1_" cx="379.2292" cy="627.8616" r="17.0288" gradientTransform="matrix(1 0 0 2.0541 -201.2798 -1113.7207)" gradientUnits="userSpaceOnUse">
	<stop  offset="0" style="stop-color:#FFFFFF"/>
	<stop  offset="1" style="stop-color:#F0F0F0"/>
</radialGradient>
<path id="path3809-4" fill="url(#path3809-4_1_)" d="M172.904,210.851c0,0,6.54,1.55,12.393-7.745
	c5.853-9.294,10.154-21.687,9.64-40.274c-0.518-18.589-9.467-23.58-15.663-21.344c-6.196,2.237-13.425,13.599-16.353,25.646
	c-2.926,12.049-2.064,24.957-1.031,30.121C162.921,202.417,167.224,209.474,172.904,210.851L172.904,210.851z"/>
<path id="path3815-2" d="M176.863,199.835c5.729,0.943,11.476-10.047,12.22-19.965c1.429-19.013-2.068-27.957-7.057-28.229
	c-5.682-0.309-10.499,11.359-11.704,22.203S169.29,198.975,176.863,199.835L176.863,199.835z"/>
<path id="path3817-1" d="M249.841,212.573c7.918,1.378,12.909-9.639,14.976-22.72c2.065-13.081-1.895-25.99-7.573-27.367
	s-12.909,12.222-14.286,23.236S241.924,211.024,249.841,212.573L249.841,212.573z"/>
<path id="path3891-9" fill="#2D1B11" d="M209.737,187.787c0,0-3.931,13.925-6.063,20.6c-1.036,3.246-14.592,20.881-13.559,23.807
	c1.032,2.928,22.72,4.819,22.72,4.819s3.786-21.515,3.099-28.571C215.245,201.386,209.737,187.787,209.737,187.787L209.737,187.787z
	"/>
<path id="path3893-9" fill="#2D1B11" d="M320.906,178.9c0,0,11.682,5.191,9.826,17.243c-1.854,12.051-2.225,8.528-3.894,13.163
	c-1.668,4.636,0.741,6.119-2.781,10.383c-3.522,4.266-9.271,7.046-9.271,7.046s9.826,10.013,15.944,1.299
	c6.118-8.715,2.225-6.86,5.006-11.866s5.748-0.187,9.085-13.721c3.338-13.534,3.522-15.573-2.41-25.216
	C336.48,167.59,320.906,178.9,320.906,178.9L320.906,178.9z"/>
<path id="Mouth-0" fill="#FFFFFF" fill-opacity="0.9647" d="M265.841,260.849c0,0-61.926,13.351-73.421,12.236
	c-11.495-1.112-35.969-22.248-35.969-22.248s17.799,28.923,33.744,31.519C206.139,284.951,265.841,260.849,265.841,260.849z"/>
<path id="path3973" fill="#9B1010" d="M76.5,487.5
		c0,0-5-28,13.5-59s63.392-50.771,87.03-58.062c23.47-7.237,36.53-13.172,36.53-13.172s-3.277,9.646-6.939,27.556
		C202.589,404.546,215.5,417,232.5,417.5s48.744-6.983,73.854-22.5c24.494-15.139,37.432-42.771,37.237-43.207
		c0,0,11.208,10.894,24.247,16.01c23.029,9.036,45.358,18.337,62.161,31.697c16.899,13.438,45.612,58.529,49.4,76.916
		c0.195,0.947-53.109,22.959-81.4,37.084L113,513L76.5,487.5z"/>
</svg>

